<mxfile host="65bd71144e">
    <diagram id="kmbQM5suQDUr0EE9jX2Q" name="Page-1">
        <mxGraphModel dx="1117" dy="1487" grid="1" gridSize="10" guides="1" tooltips="1" connect="1" arrows="1" fold="1" page="1" pageScale="1" pageWidth="827" pageHeight="1169" math="1" shadow="0">
            <root>
                <mxCell id="0"/>
                <mxCell id="1" parent="0"/>
                <mxCell id="2" value="CPU" style="text;html=1;align=center;verticalAlign=middle;resizable=0;points=[];autosize=1;strokeColor=none;fillColor=none;fontSize=18;" vertex="1" parent="1">
                    <mxGeometry x="201.88" y="110" width="60" height="40" as="geometry"/>
                </mxCell>
                <mxCell id="3" value="GPU" style="text;html=1;align=center;verticalAlign=middle;resizable=0;points=[];autosize=1;strokeColor=none;fillColor=none;fontSize=18;" vertex="1" parent="1">
                    <mxGeometry x="590" y="110" width="60" height="40" as="geometry"/>
                </mxCell>
                <mxCell id="44" value="" style="group;aspect=fixed;" vertex="1" connectable="0" parent="1">
                    <mxGeometry x="51.88" y="150" width="360" height="360" as="geometry"/>
                </mxCell>
                <mxCell id="4" value="" style="rounded=1;whiteSpace=wrap;html=1;fontSize=14;dashed=1;arcSize=6;aspect=fixed;" vertex="1" parent="44">
                    <mxGeometry width="360" height="360" as="geometry"/>
                </mxCell>
                <mxCell id="6" value="DRAM" style="rounded=1;whiteSpace=wrap;html=1;fontSize=14;fillColor=#f8cecc;strokeColor=#b85450;aspect=fixed;" vertex="1" parent="44">
                    <mxGeometry x="20.494999999999997" y="301.5" width="319" height="37" as="geometry"/>
                </mxCell>
                <mxCell id="8" value="L3 Cache" style="rounded=1;whiteSpace=wrap;html=1;fontSize=14;fillColor=#ffe6cc;strokeColor=#d79b00;aspect=fixed;" vertex="1" parent="44">
                    <mxGeometry x="20.494999999999997" y="253" width="319" height="37" as="geometry"/>
                </mxCell>
                <mxCell id="41" value="" style="group;aspect=fixed;rounded=1;arcSize=0;" vertex="1" connectable="0" parent="44">
                    <mxGeometry x="17.744999999999997" y="20" width="324.5" height="170" as="geometry"/>
                </mxCell>
                <mxCell id="42" value="" style="group;aspect=fixed;arcSize=0;" vertex="1" connectable="0" parent="41">
                    <mxGeometry width="324.5" height="170" as="geometry"/>
                </mxCell>
                <mxCell id="19" value="" style="group;aspect=fixed;arcSize=0;" vertex="1" connectable="0" parent="42">
                    <mxGeometry x="0.5" width="155" height="80" as="geometry"/>
                </mxCell>
                <mxCell id="13" value="Core" style="rounded=1;whiteSpace=wrap;html=1;fontSize=14;fillColor=#dae8fc;strokeColor=#6c8ebf;aspect=fixed;arcSize=0;" vertex="1" parent="19">
                    <mxGeometry width="111.94444444444446" height="60" as="geometry"/>
                </mxCell>
                <mxCell id="14" value="L1 Cache" style="rounded=1;whiteSpace=wrap;html=1;fontSize=14;fillColor=#fff2cc;strokeColor=#d6b656;perimeterSpacing=6;arcSize=0;aspect=fixed;" vertex="1" parent="19">
                    <mxGeometry y="60" width="111.94444444444446" height="20" as="geometry"/>
                </mxCell>
                <mxCell id="15" value="Con-trol" style="rounded=1;whiteSpace=wrap;html=1;fontSize=14;fillColor=#d5e8d4;strokeColor=#82b366;aspect=fixed;arcSize=0;" vertex="1" parent="19">
                    <mxGeometry x="111.94444444444446" width="43.05555555555556" height="80" as="geometry"/>
                </mxCell>
                <mxCell id="20" value="" style="group;aspect=fixed;arcSize=0;" vertex="1" connectable="0" parent="42">
                    <mxGeometry x="169.5" width="155" height="80" as="geometry"/>
                </mxCell>
                <mxCell id="21" value="Core" style="rounded=1;whiteSpace=wrap;html=1;fontSize=14;fillColor=#dae8fc;strokeColor=#6c8ebf;aspect=fixed;arcSize=0;" vertex="1" parent="20">
                    <mxGeometry width="111.94444444444444" height="60" as="geometry"/>
                </mxCell>
                <mxCell id="22" value="L1 Cache" style="rounded=1;whiteSpace=wrap;html=1;fontSize=14;fillColor=#fff2cc;strokeColor=#d6b656;perimeterSpacing=6;arcSize=0;aspect=fixed;" vertex="1" parent="20">
                    <mxGeometry y="60" width="111.94444444444444" height="20" as="geometry"/>
                </mxCell>
                <mxCell id="23" value="Con-trol" style="rounded=1;whiteSpace=wrap;html=1;fontSize=14;fillColor=#d5e8d4;strokeColor=#82b366;aspect=fixed;arcSize=0;" vertex="1" parent="20">
                    <mxGeometry x="111.94444444444444" width="43.05555555555556" height="80" as="geometry"/>
                </mxCell>
                <mxCell id="33" value="" style="group;aspect=fixed;arcSize=0;" vertex="1" connectable="0" parent="42">
                    <mxGeometry y="90" width="155" height="80" as="geometry"/>
                </mxCell>
                <mxCell id="34" value="Core" style="rounded=1;whiteSpace=wrap;html=1;fontSize=14;fillColor=#dae8fc;strokeColor=#6c8ebf;aspect=fixed;arcSize=0;" vertex="1" parent="33">
                    <mxGeometry width="111.94444444444444" height="60" as="geometry"/>
                </mxCell>
                <mxCell id="35" value="L1 Cache" style="rounded=1;whiteSpace=wrap;html=1;fontSize=14;fillColor=#fff2cc;strokeColor=#d6b656;perimeterSpacing=6;arcSize=0;aspect=fixed;" vertex="1" parent="33">
                    <mxGeometry y="60" width="111.94444444444444" height="20" as="geometry"/>
                </mxCell>
                <mxCell id="36" value="Con-trol" style="rounded=1;whiteSpace=wrap;html=1;fontSize=14;fillColor=#d5e8d4;strokeColor=#82b366;aspect=fixed;arcSize=0;" vertex="1" parent="33">
                    <mxGeometry x="111.94444444444444" width="43.05555555555556" height="80" as="geometry"/>
                </mxCell>
                <mxCell id="37" value="" style="group;aspect=fixed;arcSize=0;" vertex="1" connectable="0" parent="42">
                    <mxGeometry x="169.5" y="90" width="155" height="80" as="geometry"/>
                </mxCell>
                <mxCell id="38" value="Core" style="rounded=1;whiteSpace=wrap;html=1;fontSize=14;fillColor=#dae8fc;strokeColor=#6c8ebf;aspect=fixed;arcSize=0;" vertex="1" parent="37">
                    <mxGeometry width="111.94" height="60" as="geometry"/>
                </mxCell>
                <mxCell id="39" value="L1 Cache" style="rounded=1;whiteSpace=wrap;html=1;fontSize=14;fillColor=#fff2cc;strokeColor=#d6b656;perimeterSpacing=6;arcSize=0;aspect=fixed;" vertex="1" parent="37">
                    <mxGeometry y="60" width="111.94444444444444" height="20" as="geometry"/>
                </mxCell>
                <mxCell id="40" value="Con-trol" style="rounded=1;whiteSpace=wrap;html=1;fontSize=14;fillColor=#d5e8d4;strokeColor=#82b366;aspect=fixed;arcSize=0;" vertex="1" parent="37">
                    <mxGeometry x="111.94444444444444" width="43.05555555555556" height="80" as="geometry"/>
                </mxCell>
                <mxCell id="43" value="" style="group;aspect=fixed;" vertex="1" connectable="0" parent="44">
                    <mxGeometry x="19.119999999999997" y="200" width="321.75" height="37" as="geometry"/>
                </mxCell>
                <mxCell id="9" value="L2 Cache" style="rounded=1;whiteSpace=wrap;html=1;fontSize=14;fillColor=#ffe6cc;strokeColor=#d79b00;aspect=fixed;" vertex="1" parent="43">
                    <mxGeometry width="155" height="37" as="geometry"/>
                </mxCell>
                <mxCell id="10" value="L2 Cache" style="rounded=1;whiteSpace=wrap;html=1;fontSize=14;fillColor=#ffe6cc;strokeColor=#d79b00;aspect=fixed;" vertex="1" parent="43">
                    <mxGeometry x="166.75" width="155" height="37" as="geometry"/>
                </mxCell>
                <mxCell id="45" value="" style="group;aspect=fixed;" vertex="1" connectable="0" parent="1">
                    <mxGeometry x="440" y="150" width="360" height="360" as="geometry"/>
                </mxCell>
                <mxCell id="46" value="" style="rounded=1;whiteSpace=wrap;html=1;fontSize=14;dashed=1;arcSize=6;aspect=fixed;" vertex="1" parent="45">
                    <mxGeometry width="360" height="360" as="geometry"/>
                </mxCell>
                <mxCell id="47" value="DRAM" style="rounded=1;whiteSpace=wrap;html=1;fontSize=14;fillColor=#f8cecc;strokeColor=#b85450;aspect=fixed;" vertex="1" parent="45">
                    <mxGeometry x="20.494999999999997" y="301.5" width="319" height="37" as="geometry"/>
                </mxCell>
                <mxCell id="48" value="L2 Cache" style="rounded=1;whiteSpace=wrap;html=1;fontSize=14;fillColor=#ffe6cc;strokeColor=#d79b00;aspect=fixed;" vertex="1" parent="45">
                    <mxGeometry x="20.494999999999997" y="253" width="319" height="37" as="geometry"/>
                </mxCell>
                <mxCell id="156" value="" style="group" vertex="1" connectable="0" parent="45">
                    <mxGeometry x="20.49000000000001" y="20" width="105" height="60" as="geometry"/>
                </mxCell>
                <mxCell id="157" value="" style="rounded=1;whiteSpace=wrap;html=1;fontSize=14;fillColor=#d5e8d4;strokeColor=#82b366;arcSize=0;" vertex="1" parent="156">
                    <mxGeometry width="30" height="30" as="geometry"/>
                </mxCell>
                <mxCell id="158" value="" style="rounded=1;whiteSpace=wrap;html=1;fontSize=14;fillColor=#fff2cc;strokeColor=#d6b656;perimeterSpacing=6;arcSize=0;" vertex="1" parent="156">
                    <mxGeometry y="30" width="30" height="30" as="geometry"/>
                </mxCell>
                <mxCell id="159" value="" style="rounded=1;whiteSpace=wrap;html=1;fontSize=14;fillColor=#dae8fc;strokeColor=#6c8ebf;arcSize=0;" vertex="1" parent="156">
                    <mxGeometry x="30" width="15" height="15" as="geometry"/>
                </mxCell>
                <mxCell id="160" value="" style="rounded=1;whiteSpace=wrap;html=1;fontSize=14;fillColor=#dae8fc;strokeColor=#6c8ebf;arcSize=0;" vertex="1" parent="156">
                    <mxGeometry x="30" y="45" width="15" height="15" as="geometry"/>
                </mxCell>
                <mxCell id="161" value="" style="rounded=1;whiteSpace=wrap;html=1;fontSize=14;fillColor=#dae8fc;strokeColor=#6c8ebf;arcSize=0;" vertex="1" parent="156">
                    <mxGeometry x="30" y="15" width="15" height="15" as="geometry"/>
                </mxCell>
                <mxCell id="162" value="" style="rounded=1;whiteSpace=wrap;html=1;fontSize=14;fillColor=#dae8fc;strokeColor=#6c8ebf;arcSize=0;" vertex="1" parent="156">
                    <mxGeometry x="30" y="30" width="15" height="15" as="geometry"/>
                </mxCell>
                <mxCell id="163" value="" style="rounded=1;whiteSpace=wrap;html=1;fontSize=14;fillColor=#dae8fc;strokeColor=#6c8ebf;arcSize=0;" vertex="1" parent="156">
                    <mxGeometry x="45" width="15" height="15" as="geometry"/>
                </mxCell>
                <mxCell id="164" value="" style="rounded=1;whiteSpace=wrap;html=1;fontSize=14;fillColor=#dae8fc;strokeColor=#6c8ebf;arcSize=0;" vertex="1" parent="156">
                    <mxGeometry x="45" y="45" width="15" height="15" as="geometry"/>
                </mxCell>
                <mxCell id="165" value="" style="rounded=1;whiteSpace=wrap;html=1;fontSize=14;fillColor=#dae8fc;strokeColor=#6c8ebf;arcSize=0;" vertex="1" parent="156">
                    <mxGeometry x="45" y="15" width="15" height="15" as="geometry"/>
                </mxCell>
                <mxCell id="166" value="" style="rounded=1;whiteSpace=wrap;html=1;fontSize=14;fillColor=#dae8fc;strokeColor=#6c8ebf;arcSize=0;" vertex="1" parent="156">
                    <mxGeometry x="45" y="30" width="15" height="15" as="geometry"/>
                </mxCell>
                <mxCell id="167" value="" style="rounded=1;whiteSpace=wrap;html=1;fontSize=14;fillColor=#dae8fc;strokeColor=#6c8ebf;arcSize=0;" vertex="1" parent="156">
                    <mxGeometry x="60" width="15" height="15" as="geometry"/>
                </mxCell>
                <mxCell id="168" value="" style="rounded=1;whiteSpace=wrap;html=1;fontSize=14;fillColor=#dae8fc;strokeColor=#6c8ebf;arcSize=0;" vertex="1" parent="156">
                    <mxGeometry x="60" y="45" width="15" height="15" as="geometry"/>
                </mxCell>
                <mxCell id="169" value="" style="rounded=1;whiteSpace=wrap;html=1;fontSize=14;fillColor=#dae8fc;strokeColor=#6c8ebf;arcSize=0;" vertex="1" parent="156">
                    <mxGeometry x="60" y="15" width="15" height="15" as="geometry"/>
                </mxCell>
                <mxCell id="170" value="" style="rounded=1;whiteSpace=wrap;html=1;fontSize=14;fillColor=#dae8fc;strokeColor=#6c8ebf;arcSize=0;" vertex="1" parent="156">
                    <mxGeometry x="60" y="30" width="15" height="15" as="geometry"/>
                </mxCell>
                <mxCell id="171" value="" style="rounded=1;whiteSpace=wrap;html=1;fontSize=14;fillColor=#dae8fc;strokeColor=#6c8ebf;arcSize=0;" vertex="1" parent="156">
                    <mxGeometry x="75" width="15" height="15" as="geometry"/>
                </mxCell>
                <mxCell id="172" value="" style="rounded=1;whiteSpace=wrap;html=1;fontSize=14;fillColor=#dae8fc;strokeColor=#6c8ebf;arcSize=0;" vertex="1" parent="156">
                    <mxGeometry x="75" y="45" width="15" height="15" as="geometry"/>
                </mxCell>
                <mxCell id="173" value="" style="rounded=1;whiteSpace=wrap;html=1;fontSize=14;fillColor=#dae8fc;strokeColor=#6c8ebf;arcSize=0;" vertex="1" parent="156">
                    <mxGeometry x="75" y="15" width="15" height="15" as="geometry"/>
                </mxCell>
                <mxCell id="174" value="" style="rounded=1;whiteSpace=wrap;html=1;fontSize=14;fillColor=#dae8fc;strokeColor=#6c8ebf;arcSize=0;" vertex="1" parent="156">
                    <mxGeometry x="75" y="30" width="15" height="15" as="geometry"/>
                </mxCell>
                <mxCell id="175" value="" style="rounded=1;whiteSpace=wrap;html=1;fontSize=14;fillColor=#dae8fc;strokeColor=#6c8ebf;arcSize=0;" vertex="1" parent="156">
                    <mxGeometry x="90" width="15" height="15" as="geometry"/>
                </mxCell>
                <mxCell id="176" value="" style="rounded=1;whiteSpace=wrap;html=1;fontSize=14;fillColor=#dae8fc;strokeColor=#6c8ebf;arcSize=0;" vertex="1" parent="156">
                    <mxGeometry x="90" y="45" width="15" height="15" as="geometry"/>
                </mxCell>
                <mxCell id="177" value="" style="rounded=1;whiteSpace=wrap;html=1;fontSize=14;fillColor=#dae8fc;strokeColor=#6c8ebf;arcSize=0;" vertex="1" parent="156">
                    <mxGeometry x="90" y="15" width="15" height="15" as="geometry"/>
                </mxCell>
                <mxCell id="178" value="" style="rounded=1;whiteSpace=wrap;html=1;fontSize=14;fillColor=#dae8fc;strokeColor=#6c8ebf;arcSize=0;" vertex="1" parent="156">
                    <mxGeometry x="90" y="30" width="15" height="15" as="geometry"/>
                </mxCell>
                <mxCell id="179" value="" style="group" vertex="1" connectable="0" parent="45">
                    <mxGeometry x="240" y="20" width="105" height="60" as="geometry"/>
                </mxCell>
                <mxCell id="180" value="" style="rounded=1;whiteSpace=wrap;html=1;fontSize=14;fillColor=#d5e8d4;strokeColor=#82b366;arcSize=0;" vertex="1" parent="179">
                    <mxGeometry width="30" height="30" as="geometry"/>
                </mxCell>
                <mxCell id="181" value="" style="rounded=1;whiteSpace=wrap;html=1;fontSize=14;fillColor=#fff2cc;strokeColor=#d6b656;perimeterSpacing=6;arcSize=0;" vertex="1" parent="179">
                    <mxGeometry y="30" width="30" height="30" as="geometry"/>
                </mxCell>
                <mxCell id="182" value="" style="rounded=1;whiteSpace=wrap;html=1;fontSize=14;fillColor=#dae8fc;strokeColor=#6c8ebf;arcSize=0;" vertex="1" parent="179">
                    <mxGeometry x="30" width="15" height="15" as="geometry"/>
                </mxCell>
                <mxCell id="183" value="" style="rounded=1;whiteSpace=wrap;html=1;fontSize=14;fillColor=#dae8fc;strokeColor=#6c8ebf;arcSize=0;" vertex="1" parent="179">
                    <mxGeometry x="30" y="45" width="15" height="15" as="geometry"/>
                </mxCell>
                <mxCell id="184" value="" style="rounded=1;whiteSpace=wrap;html=1;fontSize=14;fillColor=#dae8fc;strokeColor=#6c8ebf;arcSize=0;" vertex="1" parent="179">
                    <mxGeometry x="30" y="15" width="15" height="15" as="geometry"/>
                </mxCell>
                <mxCell id="185" value="" style="rounded=1;whiteSpace=wrap;html=1;fontSize=14;fillColor=#dae8fc;strokeColor=#6c8ebf;arcSize=0;" vertex="1" parent="179">
                    <mxGeometry x="30" y="30" width="15" height="15" as="geometry"/>
                </mxCell>
                <mxCell id="186" value="" style="rounded=1;whiteSpace=wrap;html=1;fontSize=14;fillColor=#dae8fc;strokeColor=#6c8ebf;arcSize=0;" vertex="1" parent="179">
                    <mxGeometry x="45" width="15" height="15" as="geometry"/>
                </mxCell>
                <mxCell id="187" value="" style="rounded=1;whiteSpace=wrap;html=1;fontSize=14;fillColor=#dae8fc;strokeColor=#6c8ebf;arcSize=0;" vertex="1" parent="179">
                    <mxGeometry x="45" y="45" width="15" height="15" as="geometry"/>
                </mxCell>
                <mxCell id="188" value="" style="rounded=1;whiteSpace=wrap;html=1;fontSize=14;fillColor=#dae8fc;strokeColor=#6c8ebf;arcSize=0;" vertex="1" parent="179">
                    <mxGeometry x="45" y="15" width="15" height="15" as="geometry"/>
                </mxCell>
                <mxCell id="189" value="" style="rounded=1;whiteSpace=wrap;html=1;fontSize=14;fillColor=#dae8fc;strokeColor=#6c8ebf;arcSize=0;" vertex="1" parent="179">
                    <mxGeometry x="45" y="30" width="15" height="15" as="geometry"/>
                </mxCell>
                <mxCell id="190" value="" style="rounded=1;whiteSpace=wrap;html=1;fontSize=14;fillColor=#dae8fc;strokeColor=#6c8ebf;arcSize=0;" vertex="1" parent="179">
                    <mxGeometry x="60" width="15" height="15" as="geometry"/>
                </mxCell>
                <mxCell id="191" value="" style="rounded=1;whiteSpace=wrap;html=1;fontSize=14;fillColor=#dae8fc;strokeColor=#6c8ebf;arcSize=0;" vertex="1" parent="179">
                    <mxGeometry x="60" y="45" width="15" height="15" as="geometry"/>
                </mxCell>
                <mxCell id="192" value="" style="rounded=1;whiteSpace=wrap;html=1;fontSize=14;fillColor=#dae8fc;strokeColor=#6c8ebf;arcSize=0;" vertex="1" parent="179">
                    <mxGeometry x="60" y="15" width="15" height="15" as="geometry"/>
                </mxCell>
                <mxCell id="193" value="" style="rounded=1;whiteSpace=wrap;html=1;fontSize=14;fillColor=#dae8fc;strokeColor=#6c8ebf;arcSize=0;" vertex="1" parent="179">
                    <mxGeometry x="60" y="30" width="15" height="15" as="geometry"/>
                </mxCell>
                <mxCell id="194" value="" style="rounded=1;whiteSpace=wrap;html=1;fontSize=14;fillColor=#dae8fc;strokeColor=#6c8ebf;arcSize=0;" vertex="1" parent="179">
                    <mxGeometry x="75" width="15" height="15" as="geometry"/>
                </mxCell>
                <mxCell id="195" value="" style="rounded=1;whiteSpace=wrap;html=1;fontSize=14;fillColor=#dae8fc;strokeColor=#6c8ebf;arcSize=0;" vertex="1" parent="179">
                    <mxGeometry x="75" y="45" width="15" height="15" as="geometry"/>
                </mxCell>
                <mxCell id="196" value="" style="rounded=1;whiteSpace=wrap;html=1;fontSize=14;fillColor=#dae8fc;strokeColor=#6c8ebf;arcSize=0;" vertex="1" parent="179">
                    <mxGeometry x="75" y="15" width="15" height="15" as="geometry"/>
                </mxCell>
                <mxCell id="197" value="" style="rounded=1;whiteSpace=wrap;html=1;fontSize=14;fillColor=#dae8fc;strokeColor=#6c8ebf;arcSize=0;" vertex="1" parent="179">
                    <mxGeometry x="75" y="30" width="15" height="15" as="geometry"/>
                </mxCell>
                <mxCell id="198" value="" style="rounded=1;whiteSpace=wrap;html=1;fontSize=14;fillColor=#dae8fc;strokeColor=#6c8ebf;arcSize=0;" vertex="1" parent="179">
                    <mxGeometry x="90" width="15" height="15" as="geometry"/>
                </mxCell>
                <mxCell id="199" value="" style="rounded=1;whiteSpace=wrap;html=1;fontSize=14;fillColor=#dae8fc;strokeColor=#6c8ebf;arcSize=0;" vertex="1" parent="179">
                    <mxGeometry x="90" y="45" width="15" height="15" as="geometry"/>
                </mxCell>
                <mxCell id="200" value="" style="rounded=1;whiteSpace=wrap;html=1;fontSize=14;fillColor=#dae8fc;strokeColor=#6c8ebf;arcSize=0;" vertex="1" parent="179">
                    <mxGeometry x="90" y="15" width="15" height="15" as="geometry"/>
                </mxCell>
                <mxCell id="201" value="" style="rounded=1;whiteSpace=wrap;html=1;fontSize=14;fillColor=#dae8fc;strokeColor=#6c8ebf;arcSize=0;" vertex="1" parent="179">
                    <mxGeometry x="90" y="30" width="15" height="15" as="geometry"/>
                </mxCell>
                <mxCell id="202" value="" style="group" vertex="1" connectable="0" parent="45">
                    <mxGeometry x="20.5" y="170" width="105" height="60" as="geometry"/>
                </mxCell>
                <mxCell id="203" value="" style="rounded=1;whiteSpace=wrap;html=1;fontSize=14;fillColor=#d5e8d4;strokeColor=#82b366;arcSize=0;" vertex="1" parent="202">
                    <mxGeometry width="30" height="30" as="geometry"/>
                </mxCell>
                <mxCell id="204" value="" style="rounded=1;whiteSpace=wrap;html=1;fontSize=14;fillColor=#fff2cc;strokeColor=#d6b656;perimeterSpacing=6;arcSize=0;" vertex="1" parent="202">
                    <mxGeometry y="30" width="30" height="30" as="geometry"/>
                </mxCell>
                <mxCell id="205" value="" style="rounded=1;whiteSpace=wrap;html=1;fontSize=14;fillColor=#dae8fc;strokeColor=#6c8ebf;arcSize=0;" vertex="1" parent="202">
                    <mxGeometry x="30" width="15" height="15" as="geometry"/>
                </mxCell>
                <mxCell id="206" value="" style="rounded=1;whiteSpace=wrap;html=1;fontSize=14;fillColor=#dae8fc;strokeColor=#6c8ebf;arcSize=0;" vertex="1" parent="202">
                    <mxGeometry x="30" y="45" width="15" height="15" as="geometry"/>
                </mxCell>
                <mxCell id="207" value="" style="rounded=1;whiteSpace=wrap;html=1;fontSize=14;fillColor=#dae8fc;strokeColor=#6c8ebf;arcSize=0;" vertex="1" parent="202">
                    <mxGeometry x="30" y="15" width="15" height="15" as="geometry"/>
                </mxCell>
                <mxCell id="208" value="" style="rounded=1;whiteSpace=wrap;html=1;fontSize=14;fillColor=#dae8fc;strokeColor=#6c8ebf;arcSize=0;" vertex="1" parent="202">
                    <mxGeometry x="30" y="30" width="15" height="15" as="geometry"/>
                </mxCell>
                <mxCell id="209" value="" style="rounded=1;whiteSpace=wrap;html=1;fontSize=14;fillColor=#dae8fc;strokeColor=#6c8ebf;arcSize=0;" vertex="1" parent="202">
                    <mxGeometry x="45" width="15" height="15" as="geometry"/>
                </mxCell>
                <mxCell id="210" value="" style="rounded=1;whiteSpace=wrap;html=1;fontSize=14;fillColor=#dae8fc;strokeColor=#6c8ebf;arcSize=0;" vertex="1" parent="202">
                    <mxGeometry x="45" y="45" width="15" height="15" as="geometry"/>
                </mxCell>
                <mxCell id="211" value="" style="rounded=1;whiteSpace=wrap;html=1;fontSize=14;fillColor=#dae8fc;strokeColor=#6c8ebf;arcSize=0;" vertex="1" parent="202">
                    <mxGeometry x="45" y="15" width="15" height="15" as="geometry"/>
                </mxCell>
                <mxCell id="212" value="" style="rounded=1;whiteSpace=wrap;html=1;fontSize=14;fillColor=#dae8fc;strokeColor=#6c8ebf;arcSize=0;" vertex="1" parent="202">
                    <mxGeometry x="45" y="30" width="15" height="15" as="geometry"/>
                </mxCell>
                <mxCell id="213" value="" style="rounded=1;whiteSpace=wrap;html=1;fontSize=14;fillColor=#dae8fc;strokeColor=#6c8ebf;arcSize=0;" vertex="1" parent="202">
                    <mxGeometry x="60" width="15" height="15" as="geometry"/>
                </mxCell>
                <mxCell id="214" value="" style="rounded=1;whiteSpace=wrap;html=1;fontSize=14;fillColor=#dae8fc;strokeColor=#6c8ebf;arcSize=0;" vertex="1" parent="202">
                    <mxGeometry x="60" y="45" width="15" height="15" as="geometry"/>
                </mxCell>
                <mxCell id="215" value="" style="rounded=1;whiteSpace=wrap;html=1;fontSize=14;fillColor=#dae8fc;strokeColor=#6c8ebf;arcSize=0;" vertex="1" parent="202">
                    <mxGeometry x="60" y="15" width="15" height="15" as="geometry"/>
                </mxCell>
                <mxCell id="216" value="" style="rounded=1;whiteSpace=wrap;html=1;fontSize=14;fillColor=#dae8fc;strokeColor=#6c8ebf;arcSize=0;" vertex="1" parent="202">
                    <mxGeometry x="60" y="30" width="15" height="15" as="geometry"/>
                </mxCell>
                <mxCell id="217" value="" style="rounded=1;whiteSpace=wrap;html=1;fontSize=14;fillColor=#dae8fc;strokeColor=#6c8ebf;arcSize=0;" vertex="1" parent="202">
                    <mxGeometry x="75" width="15" height="15" as="geometry"/>
                </mxCell>
                <mxCell id="218" value="" style="rounded=1;whiteSpace=wrap;html=1;fontSize=14;fillColor=#dae8fc;strokeColor=#6c8ebf;arcSize=0;" vertex="1" parent="202">
                    <mxGeometry x="75" y="45" width="15" height="15" as="geometry"/>
                </mxCell>
                <mxCell id="219" value="" style="rounded=1;whiteSpace=wrap;html=1;fontSize=14;fillColor=#dae8fc;strokeColor=#6c8ebf;arcSize=0;" vertex="1" parent="202">
                    <mxGeometry x="75" y="15" width="15" height="15" as="geometry"/>
                </mxCell>
                <mxCell id="220" value="" style="rounded=1;whiteSpace=wrap;html=1;fontSize=14;fillColor=#dae8fc;strokeColor=#6c8ebf;arcSize=0;" vertex="1" parent="202">
                    <mxGeometry x="75" y="30" width="15" height="15" as="geometry"/>
                </mxCell>
                <mxCell id="221" value="" style="rounded=1;whiteSpace=wrap;html=1;fontSize=14;fillColor=#dae8fc;strokeColor=#6c8ebf;arcSize=0;" vertex="1" parent="202">
                    <mxGeometry x="90" width="15" height="15" as="geometry"/>
                </mxCell>
                <mxCell id="222" value="" style="rounded=1;whiteSpace=wrap;html=1;fontSize=14;fillColor=#dae8fc;strokeColor=#6c8ebf;arcSize=0;" vertex="1" parent="202">
                    <mxGeometry x="90" y="45" width="15" height="15" as="geometry"/>
                </mxCell>
                <mxCell id="223" value="" style="rounded=1;whiteSpace=wrap;html=1;fontSize=14;fillColor=#dae8fc;strokeColor=#6c8ebf;arcSize=0;" vertex="1" parent="202">
                    <mxGeometry x="90" y="15" width="15" height="15" as="geometry"/>
                </mxCell>
                <mxCell id="224" value="" style="rounded=1;whiteSpace=wrap;html=1;fontSize=14;fillColor=#dae8fc;strokeColor=#6c8ebf;arcSize=0;" vertex="1" parent="202">
                    <mxGeometry x="90" y="30" width="15" height="15" as="geometry"/>
                </mxCell>
                <mxCell id="225" value="" style="group" vertex="1" connectable="0" parent="45">
                    <mxGeometry x="240" y="170" width="105" height="60" as="geometry"/>
                </mxCell>
                <mxCell id="226" value="" style="rounded=1;whiteSpace=wrap;html=1;fontSize=14;fillColor=#d5e8d4;strokeColor=#82b366;arcSize=0;" vertex="1" parent="225">
                    <mxGeometry width="30" height="30" as="geometry"/>
                </mxCell>
                <mxCell id="227" value="" style="rounded=1;whiteSpace=wrap;html=1;fontSize=14;fillColor=#fff2cc;strokeColor=#d6b656;perimeterSpacing=6;arcSize=0;" vertex="1" parent="225">
                    <mxGeometry y="30" width="30" height="30" as="geometry"/>
                </mxCell>
                <mxCell id="228" value="" style="rounded=1;whiteSpace=wrap;html=1;fontSize=14;fillColor=#dae8fc;strokeColor=#6c8ebf;arcSize=0;" vertex="1" parent="225">
                    <mxGeometry x="30" width="15" height="15" as="geometry"/>
                </mxCell>
                <mxCell id="229" value="" style="rounded=1;whiteSpace=wrap;html=1;fontSize=14;fillColor=#dae8fc;strokeColor=#6c8ebf;arcSize=0;" vertex="1" parent="225">
                    <mxGeometry x="30" y="45" width="15" height="15" as="geometry"/>
                </mxCell>
                <mxCell id="230" value="" style="rounded=1;whiteSpace=wrap;html=1;fontSize=14;fillColor=#dae8fc;strokeColor=#6c8ebf;arcSize=0;" vertex="1" parent="225">
                    <mxGeometry x="30" y="15" width="15" height="15" as="geometry"/>
                </mxCell>
                <mxCell id="231" value="" style="rounded=1;whiteSpace=wrap;html=1;fontSize=14;fillColor=#dae8fc;strokeColor=#6c8ebf;arcSize=0;" vertex="1" parent="225">
                    <mxGeometry x="30" y="30" width="15" height="15" as="geometry"/>
                </mxCell>
                <mxCell id="232" value="" style="rounded=1;whiteSpace=wrap;html=1;fontSize=14;fillColor=#dae8fc;strokeColor=#6c8ebf;arcSize=0;" vertex="1" parent="225">
                    <mxGeometry x="45" width="15" height="15" as="geometry"/>
                </mxCell>
                <mxCell id="233" value="" style="rounded=1;whiteSpace=wrap;html=1;fontSize=14;fillColor=#dae8fc;strokeColor=#6c8ebf;arcSize=0;" vertex="1" parent="225">
                    <mxGeometry x="45" y="45" width="15" height="15" as="geometry"/>
                </mxCell>
                <mxCell id="234" value="" style="rounded=1;whiteSpace=wrap;html=1;fontSize=14;fillColor=#dae8fc;strokeColor=#6c8ebf;arcSize=0;" vertex="1" parent="225">
                    <mxGeometry x="45" y="15" width="15" height="15" as="geometry"/>
                </mxCell>
                <mxCell id="235" value="" style="rounded=1;whiteSpace=wrap;html=1;fontSize=14;fillColor=#dae8fc;strokeColor=#6c8ebf;arcSize=0;" vertex="1" parent="225">
                    <mxGeometry x="45" y="30" width="15" height="15" as="geometry"/>
                </mxCell>
                <mxCell id="236" value="" style="rounded=1;whiteSpace=wrap;html=1;fontSize=14;fillColor=#dae8fc;strokeColor=#6c8ebf;arcSize=0;" vertex="1" parent="225">
                    <mxGeometry x="60" width="15" height="15" as="geometry"/>
                </mxCell>
                <mxCell id="237" value="" style="rounded=1;whiteSpace=wrap;html=1;fontSize=14;fillColor=#dae8fc;strokeColor=#6c8ebf;arcSize=0;" vertex="1" parent="225">
                    <mxGeometry x="60" y="45" width="15" height="15" as="geometry"/>
                </mxCell>
                <mxCell id="238" value="" style="rounded=1;whiteSpace=wrap;html=1;fontSize=14;fillColor=#dae8fc;strokeColor=#6c8ebf;arcSize=0;" vertex="1" parent="225">
                    <mxGeometry x="60" y="15" width="15" height="15" as="geometry"/>
                </mxCell>
                <mxCell id="239" value="" style="rounded=1;whiteSpace=wrap;html=1;fontSize=14;fillColor=#dae8fc;strokeColor=#6c8ebf;arcSize=0;" vertex="1" parent="225">
                    <mxGeometry x="60" y="30" width="15" height="15" as="geometry"/>
                </mxCell>
                <mxCell id="240" value="" style="rounded=1;whiteSpace=wrap;html=1;fontSize=14;fillColor=#dae8fc;strokeColor=#6c8ebf;arcSize=0;" vertex="1" parent="225">
                    <mxGeometry x="75" width="15" height="15" as="geometry"/>
                </mxCell>
                <mxCell id="241" value="" style="rounded=1;whiteSpace=wrap;html=1;fontSize=14;fillColor=#dae8fc;strokeColor=#6c8ebf;arcSize=0;" vertex="1" parent="225">
                    <mxGeometry x="75" y="45" width="15" height="15" as="geometry"/>
                </mxCell>
                <mxCell id="242" value="" style="rounded=1;whiteSpace=wrap;html=1;fontSize=14;fillColor=#dae8fc;strokeColor=#6c8ebf;arcSize=0;" vertex="1" parent="225">
                    <mxGeometry x="75" y="15" width="15" height="15" as="geometry"/>
                </mxCell>
                <mxCell id="243" value="" style="rounded=1;whiteSpace=wrap;html=1;fontSize=14;fillColor=#dae8fc;strokeColor=#6c8ebf;arcSize=0;" vertex="1" parent="225">
                    <mxGeometry x="75" y="30" width="15" height="15" as="geometry"/>
                </mxCell>
                <mxCell id="244" value="" style="rounded=1;whiteSpace=wrap;html=1;fontSize=14;fillColor=#dae8fc;strokeColor=#6c8ebf;arcSize=0;" vertex="1" parent="225">
                    <mxGeometry x="90" width="15" height="15" as="geometry"/>
                </mxCell>
                <mxCell id="245" value="" style="rounded=1;whiteSpace=wrap;html=1;fontSize=14;fillColor=#dae8fc;strokeColor=#6c8ebf;arcSize=0;" vertex="1" parent="225">
                    <mxGeometry x="90" y="45" width="15" height="15" as="geometry"/>
                </mxCell>
                <mxCell id="246" value="" style="rounded=1;whiteSpace=wrap;html=1;fontSize=14;fillColor=#dae8fc;strokeColor=#6c8ebf;arcSize=0;" vertex="1" parent="225">
                    <mxGeometry x="90" y="15" width="15" height="15" as="geometry"/>
                </mxCell>
                <mxCell id="247" value="" style="rounded=1;whiteSpace=wrap;html=1;fontSize=14;fillColor=#dae8fc;strokeColor=#6c8ebf;arcSize=0;" vertex="1" parent="225">
                    <mxGeometry x="90" y="30" width="15" height="15" as="geometry"/>
                </mxCell>
                <mxCell id="248" value="" style="endArrow=none;dashed=1;html=1;dashPattern=1 3;strokeWidth=3;fontSize=18;jumpSize=26;endSize=7;perimeterSpacing=10;" edge="1" parent="45">
                    <mxGeometry width="50" height="50" relative="1" as="geometry">
                        <mxPoint x="125.49000000000001" y="80" as="sourcePoint"/>
                        <mxPoint x="240" y="170" as="targetPoint"/>
                    </mxGeometry>
                </mxCell>
                <mxCell id="250" value="" style="endArrow=none;dashed=1;html=1;dashPattern=1 3;strokeWidth=3;fontSize=18;jumpSize=26;endSize=7;perimeterSpacing=10;exitX=1;exitY=1;exitDx=0;exitDy=0;entryX=0;entryY=0;entryDx=0;entryDy=0;" edge="1" parent="45">
                    <mxGeometry width="50" height="50" relative="1" as="geometry">
                        <mxPoint x="80.49000000000001" y="82" as="sourcePoint"/>
                        <mxPoint x="80.5" y="172" as="targetPoint"/>
                    </mxGeometry>
                </mxCell>
                <mxCell id="251" value="" style="endArrow=none;dashed=1;html=1;dashPattern=1 3;strokeWidth=3;fontSize=18;jumpSize=26;endSize=7;perimeterSpacing=10;exitX=1;exitY=1;exitDx=0;exitDy=0;entryX=1;entryY=0;entryDx=0;entryDy=0;" edge="1" parent="45">
                    <mxGeometry width="50" height="50" relative="1" as="geometry">
                        <mxPoint x="300" y="81" as="sourcePoint"/>
                        <mxPoint x="300" y="171" as="targetPoint"/>
                    </mxGeometry>
                </mxCell>
                <mxCell id="252" value="" style="endArrow=none;dashed=1;html=1;dashPattern=1 3;strokeWidth=3;fontSize=18;jumpSize=26;endSize=7;perimeterSpacing=10;exitX=1;exitY=0;exitDx=0;exitDy=0;entryX=0.095;entryY=0.146;entryDx=0;entryDy=0;entryPerimeter=0;" edge="1" parent="45">
                    <mxGeometry width="50" height="50" relative="1" as="geometry">
                        <mxPoint x="130.49" y="50" as="sourcePoint"/>
                        <mxPoint x="242.99" y="50.13199999999995" as="targetPoint"/>
                    </mxGeometry>
                </mxCell>
                <mxCell id="253" value="" style="endArrow=none;dashed=1;html=1;dashPattern=1 3;strokeWidth=3;fontSize=18;jumpSize=26;endSize=7;perimeterSpacing=10;exitX=1;exitY=0;exitDx=0;exitDy=0;entryX=0.166;entryY=0.159;entryDx=0;entryDy=0;entryPerimeter=0;" edge="1" parent="45">
                    <mxGeometry width="50" height="50" relative="1" as="geometry">
                        <mxPoint x="130.5" y="200" as="sourcePoint"/>
                        <mxPoint x="245.97199999999998" y="200.678" as="targetPoint"/>
                    </mxGeometry>
                </mxCell>
                <mxCell id="70" value="" style="rounded=1;whiteSpace=wrap;html=1;fontSize=14;fillColor=#d5e8d4;strokeColor=#82b366;arcSize=0;" vertex="1" parent="1">
                    <mxGeometry x="260.51" y="567.16" width="30" height="30" as="geometry"/>
                </mxCell>
                <mxCell id="97" value="" style="rounded=1;whiteSpace=wrap;html=1;fontSize=14;fillColor=#fff2cc;strokeColor=#d6b656;perimeterSpacing=6;arcSize=0;" vertex="1" parent="1">
                    <mxGeometry x="260.51" y="597.16" width="30" height="30" as="geometry"/>
                </mxCell>
                <mxCell id="108" value="" style="group" vertex="1" connectable="0" parent="1">
                    <mxGeometry x="290.51" y="567.16" width="129.49" height="72.5" as="geometry"/>
                </mxCell>
                <mxCell id="109" value="" style="rounded=1;whiteSpace=wrap;html=1;fontSize=14;fillColor=#dae8fc;strokeColor=#6c8ebf;arcSize=0;" vertex="1" parent="108">
                    <mxGeometry width="15" height="15" as="geometry"/>
                </mxCell>
                <mxCell id="112" value="" style="rounded=1;whiteSpace=wrap;html=1;fontSize=14;fillColor=#dae8fc;strokeColor=#6c8ebf;arcSize=0;" vertex="1" parent="108">
                    <mxGeometry y="45" width="15" height="15" as="geometry"/>
                </mxCell>
                <mxCell id="125" value="\(\vdots\)" style="text;html=1;align=center;verticalAlign=middle;resizable=0;points=[];autosize=1;strokeColor=none;fillColor=none;fontSize=18;" vertex="1" parent="108">
                    <mxGeometry x="-37.5" y="7" width="90" height="40" as="geometry"/>
                </mxCell>
                <mxCell id="123" value="\(\cdots\)" style="text;html=1;align=center;verticalAlign=middle;resizable=0;points=[];autosize=1;strokeColor=none;fillColor=none;fontSize=18;" vertex="1" parent="108">
                    <mxGeometry x="-10" y="-12.5" width="90" height="40" as="geometry"/>
                </mxCell>
                <mxCell id="126" value="\(\cdots\)" style="text;html=1;align=center;verticalAlign=middle;resizable=0;points=[];autosize=1;strokeColor=none;fillColor=none;fontSize=18;" vertex="1" parent="108">
                    <mxGeometry x="-10" y="32.5" width="90" height="40" as="geometry"/>
                </mxCell>
                <mxCell id="127" value="\(\vdots\)" style="text;html=1;align=center;verticalAlign=middle;resizable=0;points=[];autosize=1;strokeColor=none;fillColor=none;fontSize=18;" vertex="1" parent="108">
                    <mxGeometry x="19.74000000000001" y="7" width="90" height="40" as="geometry"/>
                </mxCell>
                <mxCell id="121" value="" style="rounded=1;whiteSpace=wrap;html=1;fontSize=14;fillColor=#dae8fc;strokeColor=#6c8ebf;arcSize=0;" vertex="1" parent="1">
                    <mxGeometry x="347.51" y="612.16" width="15" height="15" as="geometry"/>
                </mxCell>
                <mxCell id="122" value="" style="rounded=1;whiteSpace=wrap;html=1;fontSize=14;fillColor=#dae8fc;strokeColor=#6c8ebf;arcSize=0;" vertex="1" parent="1">
                    <mxGeometry x="347.51" y="567.16" width="15" height="15" as="geometry"/>
                </mxCell>
                <mxCell id="155" value="" style="group" vertex="1" connectable="0" parent="1">
                    <mxGeometry x="227.5" y="750" width="105" height="60" as="geometry"/>
                </mxCell>
                <mxCell id="128" value="" style="rounded=1;whiteSpace=wrap;html=1;fontSize=14;fillColor=#d5e8d4;strokeColor=#82b366;arcSize=0;" vertex="1" parent="155">
                    <mxGeometry width="30" height="30" as="geometry"/>
                </mxCell>
                <mxCell id="129" value="" style="rounded=1;whiteSpace=wrap;html=1;fontSize=14;fillColor=#fff2cc;strokeColor=#d6b656;perimeterSpacing=6;arcSize=0;" vertex="1" parent="155">
                    <mxGeometry y="30" width="30" height="30" as="geometry"/>
                </mxCell>
                <mxCell id="130" value="" style="rounded=1;whiteSpace=wrap;html=1;fontSize=14;fillColor=#dae8fc;strokeColor=#6c8ebf;arcSize=0;" vertex="1" parent="155">
                    <mxGeometry x="30" width="15" height="15" as="geometry"/>
                </mxCell>
                <mxCell id="131" value="" style="rounded=1;whiteSpace=wrap;html=1;fontSize=14;fillColor=#dae8fc;strokeColor=#6c8ebf;arcSize=0;" vertex="1" parent="155">
                    <mxGeometry x="30" y="45" width="15" height="15" as="geometry"/>
                </mxCell>
                <mxCell id="137" value="" style="rounded=1;whiteSpace=wrap;html=1;fontSize=14;fillColor=#dae8fc;strokeColor=#6c8ebf;arcSize=0;" vertex="1" parent="155">
                    <mxGeometry x="30" y="15" width="15" height="15" as="geometry"/>
                </mxCell>
                <mxCell id="138" value="" style="rounded=1;whiteSpace=wrap;html=1;fontSize=14;fillColor=#dae8fc;strokeColor=#6c8ebf;arcSize=0;" vertex="1" parent="155">
                    <mxGeometry x="30" y="30" width="15" height="15" as="geometry"/>
                </mxCell>
                <mxCell id="139" value="" style="rounded=1;whiteSpace=wrap;html=1;fontSize=14;fillColor=#dae8fc;strokeColor=#6c8ebf;arcSize=0;" vertex="1" parent="155">
                    <mxGeometry x="45" width="15" height="15" as="geometry"/>
                </mxCell>
                <mxCell id="140" value="" style="rounded=1;whiteSpace=wrap;html=1;fontSize=14;fillColor=#dae8fc;strokeColor=#6c8ebf;arcSize=0;" vertex="1" parent="155">
                    <mxGeometry x="45" y="45" width="15" height="15" as="geometry"/>
                </mxCell>
                <mxCell id="141" value="" style="rounded=1;whiteSpace=wrap;html=1;fontSize=14;fillColor=#dae8fc;strokeColor=#6c8ebf;arcSize=0;" vertex="1" parent="155">
                    <mxGeometry x="45" y="15" width="15" height="15" as="geometry"/>
                </mxCell>
                <mxCell id="142" value="" style="rounded=1;whiteSpace=wrap;html=1;fontSize=14;fillColor=#dae8fc;strokeColor=#6c8ebf;arcSize=0;" vertex="1" parent="155">
                    <mxGeometry x="45" y="30" width="15" height="15" as="geometry"/>
                </mxCell>
                <mxCell id="143" value="" style="rounded=1;whiteSpace=wrap;html=1;fontSize=14;fillColor=#dae8fc;strokeColor=#6c8ebf;arcSize=0;" vertex="1" parent="155">
                    <mxGeometry x="60" width="15" height="15" as="geometry"/>
                </mxCell>
                <mxCell id="144" value="" style="rounded=1;whiteSpace=wrap;html=1;fontSize=14;fillColor=#dae8fc;strokeColor=#6c8ebf;arcSize=0;" vertex="1" parent="155">
                    <mxGeometry x="60" y="45" width="15" height="15" as="geometry"/>
                </mxCell>
                <mxCell id="145" value="" style="rounded=1;whiteSpace=wrap;html=1;fontSize=14;fillColor=#dae8fc;strokeColor=#6c8ebf;arcSize=0;" vertex="1" parent="155">
                    <mxGeometry x="60" y="15" width="15" height="15" as="geometry"/>
                </mxCell>
                <mxCell id="146" value="" style="rounded=1;whiteSpace=wrap;html=1;fontSize=14;fillColor=#dae8fc;strokeColor=#6c8ebf;arcSize=0;" vertex="1" parent="155">
                    <mxGeometry x="60" y="30" width="15" height="15" as="geometry"/>
                </mxCell>
                <mxCell id="147" value="" style="rounded=1;whiteSpace=wrap;html=1;fontSize=14;fillColor=#dae8fc;strokeColor=#6c8ebf;arcSize=0;" vertex="1" parent="155">
                    <mxGeometry x="75" width="15" height="15" as="geometry"/>
                </mxCell>
                <mxCell id="148" value="" style="rounded=1;whiteSpace=wrap;html=1;fontSize=14;fillColor=#dae8fc;strokeColor=#6c8ebf;arcSize=0;" vertex="1" parent="155">
                    <mxGeometry x="75" y="45" width="15" height="15" as="geometry"/>
                </mxCell>
                <mxCell id="149" value="" style="rounded=1;whiteSpace=wrap;html=1;fontSize=14;fillColor=#dae8fc;strokeColor=#6c8ebf;arcSize=0;" vertex="1" parent="155">
                    <mxGeometry x="75" y="15" width="15" height="15" as="geometry"/>
                </mxCell>
                <mxCell id="150" value="" style="rounded=1;whiteSpace=wrap;html=1;fontSize=14;fillColor=#dae8fc;strokeColor=#6c8ebf;arcSize=0;" vertex="1" parent="155">
                    <mxGeometry x="75" y="30" width="15" height="15" as="geometry"/>
                </mxCell>
                <mxCell id="151" value="" style="rounded=1;whiteSpace=wrap;html=1;fontSize=14;fillColor=#dae8fc;strokeColor=#6c8ebf;arcSize=0;" vertex="1" parent="155">
                    <mxGeometry x="90" width="15" height="15" as="geometry"/>
                </mxCell>
                <mxCell id="152" value="" style="rounded=1;whiteSpace=wrap;html=1;fontSize=14;fillColor=#dae8fc;strokeColor=#6c8ebf;arcSize=0;" vertex="1" parent="155">
                    <mxGeometry x="90" y="45" width="15" height="15" as="geometry"/>
                </mxCell>
                <mxCell id="153" value="" style="rounded=1;whiteSpace=wrap;html=1;fontSize=14;fillColor=#dae8fc;strokeColor=#6c8ebf;arcSize=0;" vertex="1" parent="155">
                    <mxGeometry x="90" y="15" width="15" height="15" as="geometry"/>
                </mxCell>
                <mxCell id="154" value="" style="rounded=1;whiteSpace=wrap;html=1;fontSize=14;fillColor=#dae8fc;strokeColor=#6c8ebf;arcSize=0;" vertex="1" parent="155">
                    <mxGeometry x="90" y="30" width="15" height="15" as="geometry"/>
                </mxCell>
            </root>
        </mxGraphModel>
    </diagram>
</mxfile>